<svg width="16" height="16" viewBox="0 0 16 16" fill="none" xmlns="http://www.w3.org/2000/svg">
<g id="Icon" opacity="1">
<path id="Icon_2" d="M2.66647 4.66642C2.66647 4.29823 2.96495 3.99976 3.33314 3.99976H3.99981C4.368 3.99976 4.66647 4.29823 4.66647 4.66642C4.66647 5.03461 4.368 5.33309 3.99981 5.33309H3.33314C2.96495 5.33309 2.66647 5.03461 2.66647 4.66642ZM5.99981 4.66642C5.99981 4.29823 6.29828 3.99976 6.66647 3.99976H12.6665C13.0347 3.99976 13.3331 4.29823 13.3331 4.66642C13.3331 5.03461 13.0347 5.33309 12.6665 5.33309H6.66647C6.29828 5.33309 5.99981 5.03461 5.99981 4.66642ZM2.66647 7.99976C2.66647 7.63157 2.96495 7.33309 3.33314 7.33309H3.99981C4.368 7.33309 4.66647 7.63157 4.66647 7.99976C4.66647 8.36795 4.368 8.66642 3.99981 8.66642H3.33314C2.96495 8.66642 2.66647 8.36795 2.66647 7.99976ZM5.99981 7.99976C5.99981 7.63157 6.29828 7.33309 6.66647 7.33309H12.6665C13.0347 7.33309 13.3331 7.63157 13.3331 7.99976C13.3331 8.36795 13.0347 8.66642 12.6665 8.66642H6.66647C6.29828 8.66642 5.99981 8.36795 5.99981 7.99976ZM2.66647 11.3331C2.66647 10.9649 2.96495 10.6664 3.33314 10.6664H3.99981C4.368 10.6664 4.66647 10.9649 4.66647 11.3331C4.66647 11.7013 4.368 11.9998 3.99981 11.9998H3.33314C2.96495 11.9998 2.66647 11.7013 2.66647 11.3331ZM5.99981 11.3331C5.99981 10.9649 6.29828 10.6664 6.66647 10.6664H12.6665C13.0347 10.6664 13.3331 10.9649 13.3331 11.3331C13.3331 11.7013 13.0347 11.9998 12.6665 11.9998H6.66647C6.29828 11.9998 5.99981 11.7013 5.99981 11.3331Z" fill="white"/>
</g>
</svg>
